<svg width="18" height="20" viewBox="0 0 18 20" fill="none" xmlns="http://www.w3.org/2000/svg">
<path d="M8.19577 19.5002L7.94469 19.3344C6.68811 18.4771 5.52045 17.5021 4.45838 16.4233C2.59231 14.5171 0.5 11.6595 0.5 8.2869C0.5 4.13771 3.95362 0 9 0C14.0464 0 17.5 4.13771 17.5 8.28817C17.5 11.6608 15.4077 14.5183 13.5416 16.4221C12.4795 17.5008 11.3119 18.4758 10.0553 19.3331C9.94895 19.4054 9.86526 19.4606 9.80423 19.4989C9.53877 19.671 9.26808 19.8342 9 20C8.73192 19.8342 8.46123 19.671 8.19577 19.5002ZM9 10.8384C9.69364 10.8384 10.3589 10.5697 10.8494 10.0914C11.3398 9.61319 11.6154 8.96453 11.6154 8.28817C11.6154 7.61182 11.3398 6.96316 10.8494 6.4849C10.3589 6.00665 9.69364 5.73797 9 5.73797C8.30636 5.73797 7.64112 6.00665 7.15064 6.4849C6.66016 6.96316 6.38462 7.61182 6.38462 8.28817C6.38462 8.96453 6.66016 9.61319 7.15064 10.0914C7.64112 10.5697 8.30636 10.8384 9 10.8384Z" fill="#ED1809"/>
</svg>
