<svg width="24" height="24" viewBox="0 0 24 24" fill="none" xmlns="http://www.w3.org/2000/svg">
<path d="M4 15.5V6.00001C4 5.11667 4.22933 4.41234 4.688 3.88701C5.14667 3.36167 5.75067 2.96167 6.5 2.68701C7.24933 2.41234 8.10367 2.22901 9.063 2.13701C10.0223 2.04501 11.0013 1.99934 12 2.00001C13.1 2.00001 14.1377 2.04601 15.113 2.13801C16.0883 2.23001 16.9383 2.41334 17.663 2.68801C18.3877 2.96267 18.9583 3.36267 19.375 3.88801C19.7917 4.41334 20 5.11734 20 6.00001V15.5C20 16.4833 19.6627 17.3127 18.988 17.988C18.3133 18.6633 17.484 19.0007 16.5 19L18 20.5V21H16L14 19H10L8 21H6V20.5L7.5 19C6.51667 19 5.68733 18.6627 5.012 17.988C4.33667 17.3133 3.99933 16.484 4 15.5ZM6 10H11V7.00001H6V10ZM13 10H18V7.00001H13V10ZM8.5 16C8.93333 16 9.29167 15.8583 9.575 15.575C9.85833 15.2917 10 14.9333 10 14.5C10 14.0667 9.85833 13.7083 9.575 13.425C9.29167 13.1417 8.93333 13 8.5 13C8.06667 13 7.70833 13.1417 7.425 13.425C7.14167 13.7083 7 14.0667 7 14.5C7 14.9333 7.14167 15.2917 7.425 15.575C7.70833 15.8583 8.06667 16 8.5 16ZM15.5 16C15.9333 16 16.2917 15.8583 16.575 15.575C16.8583 15.2917 17 14.9333 17 14.5C17 14.0667 16.8583 13.7083 16.575 13.425C16.2917 13.1417 15.9333 13 15.5 13C15.0667 13 14.7083 13.1417 14.425 13.425C14.1417 13.7083 14 14.0667 14 14.5C14 14.9333 14.1417 15.2917 14.425 15.575C14.7083 15.8583 15.0667 16 15.5 16Z" fill="black"/>
</svg>
