<svg width="24" height="24" viewBox="0 0 24 24" fill="none" xmlns="http://www.w3.org/2000/svg">
<path d="M7.61702 8.712L10.822 6.384C11.182 6.12105 11.6195 5.9859 12.065 6C12.6084 6.01414 13.1339 6.19692 13.5687 6.52301C14.0036 6.8491 14.3262 7.30236 14.492 7.82C14.678 8.40333 14.848 8.797 15.002 9.001C15.4677 9.62153 16.0713 10.1252 16.7652 10.4721C17.4591 10.8191 18.2242 10.9998 19 11V13C17.9675 13.0007 16.9477 12.7727 16.0139 12.3323C15.08 11.8919 14.2553 11.2501 13.599 10.453L12.901 14.409L14.962 16.138L17.185 22.246L15.305 22.93L13.266 17.326L9.87602 14.481C9.59764 14.2565 9.38456 13.9614 9.25899 13.6265C9.13341 13.2916 9.09992 12.9292 9.16202 12.577L9.67102 9.692L8.99402 10.184L6.86702 13.112L5.24902 11.936L7.60002 8.7L7.61702 8.712ZM13.5 5.5C12.9696 5.5 12.4609 5.28929 12.0858 4.91421C11.7107 4.53914 11.5 4.03043 11.5 3.5C11.5 2.96957 11.7107 2.46086 12.0858 2.08579C12.4609 1.71071 12.9696 1.5 13.5 1.5C14.0305 1.5 14.5392 1.71071 14.9142 2.08579C15.2893 2.46086 15.5 2.96957 15.5 3.5C15.5 4.03043 15.2893 4.53914 14.9142 4.91421C14.5392 5.28929 14.0305 5.5 13.5 5.5ZM10.53 18.681L7.31602 22.511L5.78402 21.226L8.75902 17.68L9.50502 15.5L11.296 17L10.53 18.681Z" fill="black"/>
</svg>
